<svg width="20" height="16" viewBox="0 0 20 16" fill="none" xmlns="http://www.w3.org/2000/svg">
<path d="M2.77857 5.10588L3.65057 10.9999H16.3866L17.2536 5.01988L13.7606 8.03988L10.0056 3.21288L6.09657 8.02388L2.77857 5.10588ZM12.8166 3.56888L12.7386 3.63588L12.8796 3.64988L14.0466 5.14888L15.4836 3.90688L15.6236 3.92088L15.5616 3.83888L17.9746 1.75288C18.1288 1.61979 18.3201 1.53699 18.5227 1.51556C18.7253 1.49413 18.9296 1.5351 19.1083 1.63298C19.2869 1.73085 19.4315 1.88097 19.5225 2.06324C19.6135 2.24551 19.6467 2.45123 19.6176 2.65288L18.1176 12.9999H1.92457L0.401574 2.69988C0.371321 2.49711 0.404119 2.28995 0.495524 2.10645C0.58693 1.92294 0.732527 1.77197 0.912595 1.67397C1.09266 1.57597 1.2985 1.53568 1.50223 1.55856C1.70596 1.58144 1.89773 1.66638 2.05157 1.80188L4.35257 3.82688L4.30257 3.88688L4.41157 3.87888L5.85557 5.14888L7.06757 3.65588L7.17657 3.64688L7.11657 3.59488L9.24757 0.975878C9.3425 0.859188 9.46253 0.765417 9.59872 0.701548C9.73491 0.63768 9.88376 0.605359 10.0342 0.606993C10.1846 0.608626 10.3327 0.644173 10.4675 0.710985C10.6022 0.777797 10.7202 0.874154 10.8126 0.992878L12.8166 3.56888ZM2.00257 13.9999H18.0026V14.9999C18.0026 15.2651 17.8972 15.5194 17.7097 15.707C17.5221 15.8945 17.2678 15.9999 17.0026 15.9999H3.00257C2.73736 15.9999 2.483 15.8945 2.29547 15.707C2.10793 15.5194 2.00257 15.2651 2.00257 14.9999V13.9999Z" fill="#E9E9E9"/>
</svg>
