<svg width="8" height="6" viewBox="0 0 8 6" fill="none" xmlns="http://www.w3.org/2000/svg">
<path d="M7.75324 1.07512C7.80174 1.1235 7.84022 1.18098 7.86648 1.24425C7.89273 1.30753 7.90625 1.37536 7.90625 1.44387C7.90625 1.51238 7.89273 1.58021 7.86648 1.64349C7.84022 1.70677 7.80174 1.76424 7.75324 1.81262L4.29074 5.27512C4.25219 5.31375 4.2064 5.34439 4.156 5.3653C4.10559 5.38621 4.05156 5.39697 3.99699 5.39697C3.94242 5.39697 3.88838 5.38621 3.83798 5.3653C3.78757 5.34439 3.74178 5.31375 3.70324 5.27512L0.240735 1.81262C0.0365683 1.60845 0.0365683 1.27929 0.240735 1.07512C0.444902 0.870954 0.774069 0.870954 0.978235 1.07512L3.99907 4.09179L7.0199 1.07095C7.2199 0.870954 7.55324 0.870954 7.75324 1.07512Z" fill="#FEFEFE"/>
</svg>
